<svg id="Layer_1" data-name="Layer 1" xmlns="http://www.w3.org/2000/svg" viewBox="0 0 35 35"><defs><style>.cls-1{fill:#fe625e;}</style></defs><path class="cls-1" d="M34,0H29.8a1,1,0,0,0-1,1v1H20.39a3.06,3.06,0,0,0-5.78,0H6.22V1a1,1,0,0,0-1-1H1A1,1,0,0,0,0,1v4.1a1,1,0,0,0,1,1H5.2a1,1,0,0,0,1-1v-1h4.21a13.36,13.36,0,0,0-6.18,10.5,3.07,3.07,0,1,0,2,.05A11.26,11.26,0,0,1,14.78,4.48a3.05,3.05,0,0,0,5.44,0,11.26,11.26,0,0,1,8.49,10.16,3.08,3.08,0,1,0,2-.05A13.35,13.35,0,0,0,24.57,4.1h4.21v1a1,1,0,0,0,1,1H34a1,1,0,0,0,1-1V1A1,1,0,0,0,34,0Z"/><path class="cls-1" d="M24.48,33.73a4.19,4.19,0,0,0-3.9-2.9H14.42a4.19,4.19,0,0,0-3.9,2.9,1,1,0,0,0,1,1.27h12A1,1,0,0,0,24.48,33.73Z"/><path class="cls-1" d="M26.56,21l-8-12v9.72a3.08,3.08,0,1,1-2.06,0V9l-8,12a1,1,0,0,0,.13,1.3,12.9,12.9,0,0,1,3.55,6.91,6.09,6.09,0,0,1,2.3-.46h6.16a6.09,6.09,0,0,1,2.3.46,12.9,12.9,0,0,1,3.55-6.91A1,1,0,0,0,26.56,21Z"/><path class="cls-1" d="M17.5,20.58a1,1,0,1,0,1,1A1,1,0,0,0,17.5,20.58Z"/></svg>