<svg id="Layer_1" data-name="Layer 1" xmlns="http://www.w3.org/2000/svg" viewBox="0 0 39 38"><defs><style>.cls-1{fill:#fe625e;}</style></defs><path class="cls-1" d="M27,13.8a39,39,0,0,1,0,10.35H12.05a38.57,38.57,0,0,1,0-10.35Z" transform="translate(0)"/><path class="cls-1" d="M12.5,11.14a20.29,20.29,0,0,1,3.6-8.37A6.16,6.16,0,0,1,18,1.12a3.06,3.06,0,0,1,3,.06,7.23,7.23,0,0,1,2.37,2.3,20.51,20.51,0,0,1,2.88,6.93c.06.23.11.47.17.73Z" transform="translate(0)"/><path class="cls-1" d="M12.5,26.81h14c-.17.66-.33,1.31-.51,2a17.82,17.82,0,0,1-2.44,5.51,11.06,11.06,0,0,1-1.93,2.11,3.11,3.11,0,0,1-4.21,0,8,8,0,0,1-1.54-1.54A20.46,20.46,0,0,1,12.5,26.81Z" transform="translate(0)"/><path class="cls-1" d="M29.58,24.15a42.25,42.25,0,0,0,0-10.36l.38,0h7.95c.27,0,.4.06.47.35a19.33,19.33,0,0,1,0,9.76c-.06.22-.12.32-.37.32H29.8Z" transform="translate(0)"/><path class="cls-1" d="M9.34,13.79c-.08,1.75-.22,3.48-.22,5.21s.14,3.43.22,5.17H1.08c-.28,0-.39-.07-.46-.36a19.4,19.4,0,0,1,0-9.72c.06-.22.11-.35.39-.35H9.17Z" transform="translate(0)"/><path class="cls-1" d="M23.93,0A19.55,19.55,0,0,1,37.37,11.14H29.16a29.16,29.16,0,0,0-1.81-5.95A16.33,16.33,0,0,0,23.93,0Z" transform="translate(0)"/><path class="cls-1" d="M15.12,0C12,3.11,10.74,7,9.82,11.14H1.7C3,6.56,10.32.45,15.12,0Z" transform="translate(0)"/><path class="cls-1" d="M29.18,26.8h8.17A19.6,19.6,0,0,1,23.83,38C27,34.86,28.26,30.92,29.18,26.8Z" transform="translate(0)"/><path class="cls-1" d="M9.82,26.8c.92,4.12,2.19,8.05,5.35,11.2A19.58,19.58,0,0,1,1.66,26.8Z" transform="translate(0)"/></svg>