<svg id="Layer_1" data-name="Layer 1" xmlns="http://www.w3.org/2000/svg" viewBox="0 0 30 30"><defs><style>.cls-1{fill:#fe625e;}</style></defs><path class="cls-1" d="M9,5.27l.62-.62a.89.89,0,0,0-.17-1.38L4.74.45A3.13,3.13,0,0,0,.45,4.74L3.27,9.45a.89.89,0,0,0,1.38.17L5.27,9,10,13.74,13.75,10Z" transform="translate(0 0)"/><path class="cls-1" d="M29.4,3.5A.87.87,0,0,0,28,3.26L25.71,5.53a.9.9,0,0,1-1.24,0,.88.88,0,0,1,0-1.24L26.74,2A.87.87,0,0,0,26.5.6a6.16,6.16,0,0,0-8.45,7.62L8.22,18.05A6.16,6.16,0,0,0,.6,26.5.87.87,0,0,0,2,26.74l2.28-2.27a.88.88,0,0,1,1.24,1.24L3.26,28A.87.87,0,0,0,3.5,29.4,6.16,6.16,0,0,0,12,21.78L21.78,12A6.16,6.16,0,0,0,29.4,3.5Z" transform="translate(0 0)"/><path class="cls-1" d="M28.7,22.57a72.5,72.5,0,0,0-8.11-6.88l-5,5a73.92,73.92,0,0,0,6.73,8A4.7,4.7,0,0,0,25.68,30a4.16,4.16,0,0,0,2.46-.73A4.46,4.46,0,0,0,30,26,4.37,4.37,0,0,0,28.7,22.57Zm-2.53,3.6a.9.9,0,0,1-1.23,0l-3.48-3.48a.91.91,0,0,1-.05-1.23.88.88,0,0,1,1.28,0L26.2,24.9A.88.88,0,0,1,26.17,26.17Z" transform="translate(0 0)"/></svg>