<svg id="Layer_1" data-name="Layer 1" xmlns="http://www.w3.org/2000/svg" viewBox="0 0 36.25 35"><defs><style>.cls-1{fill:#fe625e;}</style></defs><path class="cls-1" d="M29.56,20a37.12,37.12,0,0,0-15.49,4.06l-6,3.47a3.32,3.32,0,0,1-4.54-1.21L.44,21a3.34,3.34,0,0,1,1.22-4.55l5-2.88a.62.62,0,0,1,.83.22l3.92,6.79a.6.6,0,0,0,.84.22.62.62,0,0,0,.19-.84L8.48,13.16a.61.61,0,0,1,.18-.8A37.06,37.06,0,0,0,18.94,1.62a2.53,2.53,0,0,1,4.33.09l8.39,14.52A2.53,2.53,0,0,1,29.56,20ZM30.64,9.91a3.78,3.78,0,0,0-2.41-4.17.6.6,0,0,0-.73.87l2,3.5A.6.6,0,0,0,30.64,9.91ZM16.69,31.29l-2.86-5a.61.61,0,0,0-.83-.22L9.31,28.22a.6.6,0,0,0-.22.82L12,34a2,2,0,0,0,1.71,1c.65,0,.9-.22,2.3-1A2,2,0,0,0,16.69,31.29Zm18.36-26a.6.6,0,0,0-.6-1l-1.57.9a.61.61,0,0,0,.31,1.13C33.4,6.3,33.36,6.29,35.05,5.31ZM29.5,2.18,29.88.76A.62.62,0,0,0,29.45,0a.61.61,0,0,0-.74.43l-.38,1.42a.6.6,0,0,0,.58.76A.62.62,0,0,0,29.5,2.18Zm6.73,9.59A.59.59,0,0,0,35.8,11l-1.42-.39a.62.62,0,0,0-.74.43.6.6,0,0,0,.43.74,8.66,8.66,0,0,0,1.58.4A.6.6,0,0,0,36.23,11.77Z" transform="translate(0 0)"/></svg>