<svg id="Layer_1" data-name="Layer 1" xmlns="http://www.w3.org/2000/svg" xmlns:xlink="http://www.w3.org/1999/xlink" viewBox="0 0 27 39.19"><defs><style>.cls-1{fill:none;}.cls-1,.cls-3{stroke:#fe625e;stroke-miterlimit:10;}.cls-2{clip-path:url(#clip-path);}.cls-3{fill:#fff;}</style><clipPath id="clip-path" transform="translate(0.5 0.5)"><rect class="cls-1" width="26" height="38.19"/></clipPath></defs><g class="cls-2"><path class="cls-3" d="M3.87,0,3.18.19A4.43,4.43,0,0,0,0,4.42C0,5.65,0,6.88,0,8.11V33.64a4.36,4.36,0,0,0,3,4.27,5,5,0,0,0,1.53.26q8.52,0,17,0A4.42,4.42,0,0,0,26,33.83c0-.41,0-.82,0-1.23q0-14,0-28A4.32,4.32,0,0,0,23.35.39,9.64,9.64,0,0,0,22.13,0ZM22.74,19.08V33.29A1.58,1.58,0,0,1,21,35H5a2.15,2.15,0,0,1-1-.25,1.56,1.56,0,0,1-.78-1.51c0-9.29,0-18.57,0-27.85,0-1.5.6-2.3,2.24-2.2,1.15.06,1.72.52,1.84,1.65A1.58,1.58,0,0,0,9,6.35c2.66,0,5.33,0,8,0a1.6,1.6,0,0,0,1.7-1.51,1.6,1.6,0,0,1,1.85-1.65h.38A1.62,1.62,0,0,1,22.74,5Z" transform="translate(0.5 0.5)"/></g><rect class="cls-1" x="0.5" y="0.5" width="26" height="38.19"/></svg>