<svg id="Layer_1" data-name="Layer 1" xmlns="http://www.w3.org/2000/svg" viewBox="0 0 36.8 28"><defs><style>.cls-1{fill:#fe625e;}</style></defs><path class="cls-1" d="M36.58,13.45l-9.4-9.4a.8.8,0,0,0-1.1,0l-2,2a.77.77,0,0,0,0,1.1L30.85,14l-6.8,6.8a.78.78,0,0,0,0,1.11l2,2a.78.78,0,0,0,.55.23.75.75,0,0,0,.55-.23l9.4-9.39A.78.78,0,0,0,36.58,13.45Z" transform="translate(0 0)"/><path class="cls-1" d="M12.76,20.8,6,14l6.81-6.81A.75.75,0,0,0,13,6.64a.78.78,0,0,0-.23-.55l-2-2a.78.78,0,0,0-.55-.22.82.82,0,0,0-.55.22L.23,13.45a.77.77,0,0,0,0,1.1l9.39,9.39a.78.78,0,0,0,.55.23.75.75,0,0,0,.55-.23l2-2A.8.8,0,0,0,12.76,20.8Z" transform="translate(0 0)"/><path class="cls-1" d="M23.74.89a.75.75,0,0,0-.46-.37L21.63,0a.79.79,0,0,0-1,.53L13,26.51a.79.79,0,0,0,.06.6.8.8,0,0,0,.46.37l1.66.49a.78.78,0,0,0,1-.53L23.81,1.49A.79.79,0,0,0,23.74.89Z" transform="translate(0 0)"/></svg>